<svg width="96" height="105" viewBox="0 0 96 105" fill="none" xmlns="http://www.w3.org/2000/svg">
<g filter="url(#filter0_i)">
<path fill-rule="evenodd" clip-rule="evenodd" d="M30.1574 40.4965L2.66121 24.9922L46.9887 0L61.5159 8.12745L51.6926 13.8243L47.8437 11.6528L24.4644 24.8761L30.8718 28.4907L54.1083 15.5333H54.1127L64.4227 9.75383L91.6644 24.9945L46.9887 49.9867L33.2807 42.2569L44.2158 35.9055L47.4977 37.7665L71.04 24.637L64.4673 20.9285L41.2711 34.0468H41.2666L30.1574 40.4965ZM0 28.9353L44.9124 54.3498V72.5907L40.9965 74.7041L44.9124 78.0932V104.56L0 79.4001V28.9353ZM10.5064 46.8926V54.1219L33.917 67.477V60.06L10.5064 46.8926ZM10.5064 65.7769V73.0063L33.917 86.3636V78.9466L10.5064 65.7769ZM95.7566 68.3237V78.6383L50.5965 104.028V53.7042L95.7566 28.5019V34.8131L95.8348 34.7394V47.2321L85.3596 53.1367V45.9543L61.594 59.4412V85.4454L85.3596 72.1037V65.5915L95.8348 59.6869V68.2478L95.7566 68.3215V68.3237Z" fill="#846C5A"/>
</g>
<defs>
<filter id="filter0_i" x="0" y="0" width="96" height="109" filterUnits="userSpaceOnUse" color-interpolation-filters="sRGB">
<feFlood flood-opacity="0" result="BackgroundImageFix"/>
<feBlend mode="normal" in="SourceGraphic" in2="BackgroundImageFix" result="shape"/>
<feColorMatrix in="SourceAlpha" type="matrix" values="0 0 0 0 0 0 0 0 0 0 0 0 0 0 0 0 0 0 127 0" result="hardAlpha"/>
<feOffset dy="4"/>
<feGaussianBlur stdDeviation="2"/>
<feComposite in2="hardAlpha" operator="arithmetic" k2="-1" k3="1"/>
<feColorMatrix type="matrix" values="0 0 0 0 0 0 0 0 0 0 0 0 0 0 0 0 0 0 0.3 0"/>
<feBlend mode="normal" in2="shape" result="effect1_innerShadow"/>
</filter>
</defs>
</svg>
