<svg width="50" height="50" viewBox="0 0 50 50" fill="none" xmlns="http://www.w3.org/2000/svg">
<path d="M41.6666 12.5H35.4166V8.33335C35.4166 6.02085 33.5625 4.16669 31.25 4.16669H18.75C16.4375 4.16669 14.5833 6.02085 14.5833 8.33335V12.5H8.33329C6.02079 12.5 4.16663 14.3542 4.16663 16.6667V39.5834C4.16663 41.8959 6.02079 43.75 8.33329 43.75H41.6666C43.9791 43.75 45.8333 41.8959 45.8333 39.5834V16.6667C45.8333 14.3542 43.9791 12.5 41.6666 12.5ZM18.75 8.33335H31.25V12.5H18.75V8.33335ZM41.6666 39.5834H8.33329V35.4167H41.6666V39.5834ZM41.6666 29.1667H8.33329V16.6667H14.5833V20.8334H18.75V16.6667H31.25V20.8334H35.4166V16.6667H41.6666V29.1667Z" fill="#846C5A"/>
</svg>
